<svg width="93" height="92" viewBox="0 0 93 92" fill="none" xmlns="http://www.w3.org/2000/svg">
<g filter="url(#filter0_f_195_10885)">
<rect x="1" y="1" width="91" height="90" rx="20" fill="#C7D4CB"/>
<rect x="1.5" y="1.5" width="90" height="89" rx="19.5" stroke="url(#paint0_linear_195_10885)"/>
<path d="M77.9558 61.0292L48.7753 75.5145L48.7732 42.9821L77.9558 28.5095V61.0292Z" fill="#026924"/>
<path d="M48.7753 75.5138L16.4001 59.2506V26.731L48.7753 42.9942V75.5138Z" fill="#024017"/>
<path d="M77.9558 28.5094L48.7758 42.9909L16.4006 26.7145L45.5811 12.25L77.9558 28.5094Z" fill="#049334"/>
<path d="M17.6777 26.7149L45.5811 12.8911L76.6787 28.5098L48.7758 42.3496L17.6777 26.7149Z" fill="#53677A"/>
<path d="M45.5811 12.8911V40.7433L48.7757 42.3496L76.6787 28.5098L45.5811 12.8911Z" fill="#7086A5"/>
<path d="M35.4878 44.6251L29.5492 41.6421C28.3963 41.0629 27.4621 39.6548 27.4621 38.4973C27.4621 38.2447 27.5086 38.0273 27.5902 37.8442C27.1772 38.0196 26.9167 38.4357 26.9167 39.0451C26.9167 40.203 27.851 41.6111 29.0038 42.1899L34.9425 45.1729C35.8438 45.6255 36.6093 45.4353 36.9014 44.778C36.5299 44.9359 36.034 44.8994 35.4878 44.6251Z" fill="#3C4A57"/>
<mask id="mask0_195_10885" style="mask-type:luminance" maskUnits="userSpaceOnUse" x="27" y="37" width="11" height="8">
<path d="M37.0301 44.1249C37.0301 42.9669 36.0958 41.5593 34.943 40.9801L29.0044 37.9971C28.4582 37.7228 27.9628 37.6863 27.5907 37.8442C27.5092 38.0277 27.4626 38.2451 27.4626 38.4973C27.4626 39.6553 28.3969 41.0629 29.5497 41.6421L35.4884 44.6251C36.0345 44.8994 36.53 44.9359 36.902 44.778C36.9832 44.5945 37.0301 44.3771 37.0301 44.1249Z" fill="white"/>
</mask>
<g mask="url(#mask0_195_10885)">
<path d="M29.5637 32.4885V42.6592L35.2589 44.6562V35.12L29.5637 32.4885Z" fill="#74ADE3"/>
</g>
<mask id="mask1_195_10885" style="mask-type:luminance" maskUnits="userSpaceOnUse" x="27" y="37" width="11" height="8">
<path d="M37.0301 44.1249C37.0301 42.9669 36.0958 41.5593 34.943 40.9801L29.0044 37.9971C28.4582 37.7228 27.9628 37.6863 27.5907 37.8442C27.5092 38.0277 27.4626 38.2451 27.4626 38.4973C27.4626 39.6553 28.3969 41.0629 29.5497 41.6421L35.4884 44.6251C36.0345 44.8994 36.53 44.9359 36.902 44.778C36.9832 44.5945 37.0301 44.3771 37.0301 44.1249Z" fill="white"/>
</mask>
<g mask="url(#mask1_195_10885)">
<path d="M36.7346 35.5679V45.5891L38.3926 42.7526L36.7346 35.5679Z" fill="#74ADE3"/>
</g>
<mask id="mask2_195_10885" style="mask-type:luminance" maskUnits="userSpaceOnUse" x="27" y="37" width="11" height="8">
<path d="M37.0301 44.1249C37.0301 42.9669 36.0958 41.5593 34.943 40.9801L29.0044 37.9971C28.4582 37.7228 27.9628 37.6863 27.5907 37.8442C27.5092 38.0277 27.4626 38.2451 27.4626 38.4973C27.4626 39.6553 28.3969 41.0629 29.5497 41.6421L35.4884 44.6251C36.0345 44.8994 36.53 44.9359 36.902 44.778C36.9832 44.5945 37.0301 44.3771 37.0301 44.1249Z" fill="white"/>
</mask>
<g mask="url(#mask2_195_10885)">
<path d="M35.2588 44.6563L36.7346 45.328V36.9463L35.2588 36.1956V44.6563Z" fill="#5B8FBD"/>
</g>
<mask id="mask3_195_10885" style="mask-type:luminance" maskUnits="userSpaceOnUse" x="27" y="37" width="11" height="8">
<path d="M37.0301 44.1249C37.0301 42.9669 36.0958 41.5593 34.943 40.9801L29.0044 37.9971C28.4582 37.7228 27.9628 37.6863 27.5907 37.8442C27.5092 38.0277 27.4626 38.2451 27.4626 38.4973C27.4626 39.6553 28.3969 41.0629 29.5497 41.6421L35.4884 44.6251C36.0345 44.8994 36.53 44.9359 36.902 44.778C36.9832 44.5945 37.0301 44.3771 37.0301 44.1249Z" fill="white"/>
</mask>
<g mask="url(#mask3_195_10885)">
<path d="M28.0879 31.949V40.5787L26.4092 37.7507L28.0879 31.949Z" fill="#74ADE3"/>
</g>
<mask id="mask4_195_10885" style="mask-type:luminance" maskUnits="userSpaceOnUse" x="27" y="37" width="11" height="8">
<path d="M37.0301 44.1249C37.0301 42.9669 36.0958 41.5593 34.943 40.9801L29.0044 37.9971C28.4582 37.7228 27.9628 37.6863 27.5907 37.8442C27.5092 38.0277 27.4626 38.2451 27.4626 38.4973C27.4626 39.6553 28.3969 41.0629 29.5497 41.6421L35.4884 44.6251C36.0345 44.8994 36.53 44.9359 36.902 44.778C36.9832 44.5945 37.0301 44.3771 37.0301 44.1249Z" fill="white"/>
</mask>
<g mask="url(#mask4_195_10885)">
<path d="M29.5637 35.8104L28.0879 35.3064V40.5786L29.5637 42.6592V35.8104Z" fill="#5B8FBD"/>
</g>
<mask id="mask5_195_10885" style="mask-type:luminance" maskUnits="userSpaceOnUse" x="27" y="37" width="11" height="8">
<path d="M37.0301 44.1249C37.0301 42.9669 36.0958 41.5593 34.943 40.9801L29.0044 37.9971C28.4582 37.7228 27.9628 37.6863 27.5907 37.8442C27.5092 38.0277 27.4626 38.2451 27.4626 38.4973C27.4626 39.6553 28.3969 41.0629 29.5497 41.6421L35.4884 44.6251C36.0345 44.8994 36.53 44.9359 36.902 44.778C36.9832 44.5945 37.0301 44.3771 37.0301 44.1249Z" fill="white"/>
</mask>
<g mask="url(#mask5_195_10885)">
<path d="M34.4911 45.9731L30.1064 43.7705V34.0559L34.4911 36.2585V45.9731Z" fill="white"/>
</g>
<path d="M57.4761 52.99V46.4903L70.915 39.5688V46.0682L57.4761 52.99Z" fill="#A3C0C9"/>
<path d="M70.4093 45.8146L57.9812 52.2282V46.7441L70.4093 40.3306V45.8146Z" fill="white"/>
<mask id="mask6_195_10885" style="mask-type:luminance" maskUnits="userSpaceOnUse" x="17" y="12" width="60" height="31">
<path d="M17.6777 26.7149L45.5811 12.8911L76.6787 28.5098L48.7758 42.3496L17.6777 26.7149Z" fill="white"/>
</mask>
<g mask="url(#mask6_195_10885)">
<path d="M46.0316 49.1983L22.3928 60.8543V25.8106L46.0316 14.155V49.1983Z" fill="#5583B0"/>
<path d="M25.2971 57.5222L23.4624 56.6088V26.4819L25.2971 27.3957V57.5222Z" fill="#9BA5A8"/>
<path d="M25.2967 27.3935L23.4624 26.4823L45.4652 15.6836L47.2994 16.5948L25.2967 27.3935Z" fill="white"/>
<path d="M47.3001 46.7214L25.2974 57.5223V27.3958L47.3001 16.595V46.7214Z" fill="#D9D9D9"/>
<path d="M27.1985 58.5451L25.3638 57.6313V27.5049L27.1985 28.4187V58.5451Z" fill="#9BA5A8"/>
<path d="M27.1982 28.4164L25.3635 27.5048L47.3663 16.7061L49.201 17.6173L27.1982 28.4164Z" fill="white"/>
<path d="M49.2013 47.7444L27.1985 58.5452V28.4187L49.2013 17.6179V47.7444Z" fill="#D9D9D9"/>
<path d="M29.1772 59.564L27.3425 58.6506V28.5242L29.1772 29.4375V59.564Z" fill="#9BA5A8"/>
<path d="M29.1768 29.4355L27.3425 28.5243L49.3453 17.7256L51.1796 18.6368L29.1768 29.4355Z" fill="white"/>
<path d="M51.18 48.7632L29.1772 59.564V29.4375L51.18 18.6367V48.7632Z" fill="#D9D9D9"/>
<path d="M28.0876 63.7156L22.3928 60.8545V25.8113L28.0876 28.672V63.7156Z" fill="#74ADE3"/>
<path d="M51.5003 51.9594L28.0876 63.7208V28.6771L51.5003 16.9158V51.9594Z" fill="#5B8FBD"/>
<path d="M22.3928 25.8115L28.0876 28.6794L28.334 28.5601L22.6393 25.6921L22.3928 25.8115Z" fill="#A6CCF0"/>
<path d="M51.5002 16.9158L28.1083 28.6792L27.8618 28.5599L51.2537 16.7969L51.5002 16.9158Z" fill="#A6CCF0"/>
<path d="M46.0316 14.1686L22.6393 25.9317L22.3928 25.8123L45.7851 14.0493L46.0316 14.1686Z" fill="#A6CCF0"/>
<path d="M27.1564 51.3417L23.3247 49.4169V31.7358L27.1564 33.6607V51.3417Z" fill="white"/>
<path d="M29.4409 35.0326V35.5082L29.5635 35.8895L29.9144 36.1027L30.8782 35.8895L32.5358 35.0326L33.2291 34.416L33.5673 33.6903V32.977L33.1445 32.6882H32.6711L31.4701 33.2657L30.3342 33.6776L29.8637 34.2513L29.4409 35.0326Z" fill="#EDEDED"/>
<path d="M33.3763 33.3642C33.3763 33.9337 32.9168 34.6262 32.3499 34.9111L30.4776 35.7676C30.1956 35.909 29.9407 35.923 29.7551 35.8313C29.9411 36.0003 30.2451 36.0203 30.59 35.8466L32.4624 34.9901C33.0293 34.7052 33.4888 34.0126 33.4888 33.4432C33.4888 33.157 33.3721 32.9566 33.1848 32.864C33.3045 32.9727 33.3763 33.1413 33.3763 33.3642Z" fill="#728082"/>
<path d="M33.3875 32.58C33.1554 32.4649 32.8362 32.4823 32.4837 32.6594L30.5687 33.5375C29.8601 33.8933 29.2856 34.7591 29.2856 35.4712C29.2856 35.7651 29.3875 35.9816 29.5524 36.1158C29.787 36.3065 30.1531 36.3247 30.5691 36.1158L32.4841 35.2377C33.193 34.8819 33.7675 34.016 33.7675 33.3039C33.7671 32.946 33.6217 32.6959 33.3875 32.58ZM32.4625 34.9901L30.5902 35.8466C30.2448 36.0199 29.9413 36.0003 29.7553 35.8313C29.6357 35.7226 29.5638 35.554 29.5638 35.3315C29.5638 34.7621 30.0233 34.0695 30.5902 33.7846L32.4625 32.9282C32.7445 32.7867 32.9994 32.7727 33.185 32.8645C33.3727 32.957 33.489 33.1574 33.489 33.4436C33.489 34.0131 33.0294 34.7052 32.4625 34.9901Z" fill="#A3C0C9"/>
<path d="M53.202 52.8903L29.5632 64.5459V29.5027L53.202 17.8467V52.8903Z" fill="#55B05F"/>
<path d="M32.4675 61.2143L30.6328 60.3009V30.1741L32.4675 31.0879V61.2143Z" fill="#9CA89B"/>
<path d="M32.4675 31.0859L30.6328 30.1747L52.6356 19.376L54.4703 20.2872L32.4675 31.0859Z" fill="white"/>
<path d="M54.4703 50.4136L32.4675 61.2144V31.0879L54.4703 20.2871V50.4136Z" fill="#D9D9D9"/>
<path d="M34.3689 62.237L32.5347 61.3232V31.1968L34.3689 32.1102V62.237Z" fill="#9CA89B"/>
<path d="M34.3687 32.1081L32.5344 31.1969L54.5368 20.3982L56.3715 21.3094L34.3687 32.1081Z" fill="white"/>
<path d="M56.3721 51.4363L34.3689 62.2371V32.1102L56.3721 21.3098V51.4363Z" fill="#D9D9D9"/>
<path d="M36.3471 63.2566L34.5125 62.3432V32.2163L36.3471 33.1301V63.2566Z" fill="#9CA89B"/>
<path d="M36.3471 33.1279L34.5125 32.2167L56.5152 21.418L58.3495 22.3292L36.3471 33.1279Z" fill="white"/>
<path d="M58.3499 52.4558L36.3472 63.2566V33.1302L58.3499 22.3293V52.4558Z" fill="#D9D9D9"/>
<path d="M35.2584 67.4075L29.5632 64.5468V29.5032L35.2584 32.3643V67.4075Z" fill="#74E37F"/>
<path d="M58.6709 55.6518L35.2583 67.4127V32.3695L58.6709 20.6082V55.6518Z" fill="#5BBD64"/>
<path d="M29.5632 29.5036L35.2584 32.3711L35.5044 32.2522L29.8097 29.3843L29.5632 29.5036Z" fill="#A3EDAB"/>
<path d="M58.671 20.6082L35.2787 32.3712L35.0322 32.2523L58.4245 20.4893L58.671 20.6082Z" fill="#A3EDAB"/>
<path d="M53.202 17.8608L29.8097 29.6238L29.5632 29.5045L52.9556 17.7415L53.202 17.8608Z" fill="#A3EDAB"/>
<path d="M34.3266 55.0338L30.4949 53.1086V35.4275L34.3266 37.3523V55.0338Z" fill="#74E37F"/>
<path d="M36.6111 38.7247V39.2003L36.7341 39.5812L37.0846 39.7948L38.0488 39.5812L39.706 38.7247L40.3997 38.1082L40.7379 37.3825V36.6691L40.3147 36.3804H39.8412L38.6402 36.9579L37.5043 37.3697L37.0338 37.943L36.6111 38.7247Z" fill="#EDEDED"/>
<path d="M40.547 37.0564C40.547 37.6258 40.0875 38.3183 39.5206 38.6033L37.6482 39.4597C37.3663 39.6011 37.1114 39.6152 36.9258 39.5234C37.1118 39.6924 37.4157 39.7124 37.7611 39.5387L39.6334 38.6823C40.2003 38.3973 40.6598 37.7048 40.6598 37.1353C40.6598 36.8491 40.5432 36.6487 40.3559 36.5562C40.4751 36.6649 40.547 36.8334 40.547 37.0564Z" fill="#758272"/>
<path d="M40.5581 36.2721C40.3261 36.157 40.0069 36.1744 39.6543 36.3515L37.7393 37.2296C37.0308 37.5855 36.4563 38.4513 36.4563 39.163C36.4563 39.4568 36.5582 39.6734 36.7231 39.8075C36.9577 39.9982 37.3233 40.0165 37.7397 39.8075L39.6548 38.9294C40.3633 38.5736 40.9378 37.7078 40.9378 36.9961C40.9374 36.6381 40.7923 36.388 40.5581 36.2721ZM39.6328 38.6823L37.7605 39.5388C37.4151 39.712 37.1115 39.6925 36.9251 39.5235C36.8055 39.4148 36.7336 39.2462 36.7336 39.0237C36.7336 38.4542 37.1931 37.7617 37.76 37.4768L39.6323 36.6203C39.9143 36.4789 40.1692 36.4649 40.3548 36.5566C40.5425 36.6492 40.6588 36.8496 40.6588 37.1358C40.6592 37.7048 40.1997 38.3974 39.6328 38.6823Z" fill="#A7C9A3"/>
<path d="M60.3727 56.5822L36.7344 68.2378V33.1942L60.3727 21.5386V56.5822Z" fill="#5583B0"/>
<path d="M39.6385 64.9062L37.8042 63.9929V33.866L39.6385 34.7798V64.9062Z" fill="#9BA5A8"/>
<path d="M39.6382 34.7776L37.804 33.8663L59.8067 23.0676L61.641 23.9789L39.6382 34.7776Z" fill="white"/>
<path d="M61.6416 54.1055L39.6384 64.9063V34.7798L61.6416 23.979V54.1055Z" fill="#D9D9D9"/>
<path d="M41.54 65.9292L39.7053 65.0154V34.8889L41.54 35.8023V65.9292Z" fill="#9BA5A8"/>
<path d="M41.5393 35.8003L39.7051 34.889L61.7079 24.0903L63.5421 25.0016L41.5393 35.8003Z" fill="white"/>
<path d="M63.5428 55.1284L41.54 65.9292V35.8023L63.5428 25.002V55.1284Z" fill="#D9D9D9"/>
<path d="M43.5183 66.9485L41.6836 66.0351V35.9082L43.5183 36.822V66.9485Z" fill="#9BA5A8"/>
<path d="M43.5185 36.8197L41.6838 35.9085L63.6866 25.1094L65.5213 26.0211L43.5185 36.8197Z" fill="white"/>
<path d="M65.5215 56.1475L43.5183 66.9483V36.8218L65.5215 26.021V56.1475Z" fill="#D9D9D9"/>
<path d="M42.4291 71.0994L36.7344 68.2387V33.1951L42.4291 36.0558V71.0994Z" fill="#74ADE3"/>
<path d="M65.8418 59.3434L42.4292 71.1044V36.0607L65.8418 24.2998V59.3434Z" fill="#5B8FBD"/>
<path d="M36.7344 33.1951L42.4291 36.063L42.6756 35.9441L36.9808 33.0762L36.7344 33.1951Z" fill="#A6CCF0"/>
<path d="M65.8419 24.3L42.4496 36.063L42.2031 35.9441L65.5955 24.1807L65.8419 24.3Z" fill="#A6CCF0"/>
<path d="M60.3727 21.5522L36.9808 33.3157L36.7344 33.1964L60.1263 21.4333L60.3727 21.5522Z" fill="#A6CCF0"/>
<path d="M41.4979 58.7257L37.6658 56.8004V39.1194L41.4979 41.0442V58.7257Z" fill="white"/>
<path d="M43.7822 42.4162V42.8922L43.9048 43.2731L44.2557 43.4867L45.2195 43.2731L46.8771 42.4162L47.5704 41.8001L47.9086 41.0744V40.361L47.4859 40.0723H47.0124L45.8114 40.6498L44.6755 41.0612L44.205 41.6349L43.7822 42.4162Z" fill="#EDEDED"/>
<path d="M47.7179 40.7478C47.7179 41.3172 47.2584 42.0098 46.6915 42.2947L44.8191 43.1512C44.5372 43.2926 44.2823 43.3066 44.0967 43.2148C44.2827 43.3838 44.5866 43.4038 44.932 43.2301L46.8043 42.3737C47.3712 42.0887 47.8307 41.3962 47.8307 40.8267C47.8307 40.5405 47.7141 40.3401 47.5268 40.2476C47.646 40.3567 47.7179 40.5253 47.7179 40.7478Z" fill="#728082"/>
<path d="M47.729 39.964C47.497 39.8489 47.1778 39.8663 46.8252 40.0434L44.9102 40.9215C44.2017 41.2774 43.6272 42.1432 43.6272 42.8548C43.6272 43.1487 43.7291 43.3653 43.8939 43.4994C44.1286 43.6901 44.4947 43.7084 44.9106 43.4994L46.8256 42.6213C47.5342 42.2655 48.1087 41.3997 48.1087 40.688C48.1082 40.33 47.9632 40.0799 47.729 39.964ZM46.8037 42.3742L44.9314 43.2306C44.586 43.4039 44.2824 43.3844 44.096 43.2154C43.9764 43.1067 43.9045 42.9381 43.9045 42.7156C43.9045 42.1461 44.364 41.4536 44.9309 41.1686L46.8032 40.3122C47.0852 40.1708 47.3401 40.1568 47.5257 40.2485C47.7134 40.3411 47.8297 40.5415 47.8297 40.8277C47.8305 41.3967 47.3706 42.0892 46.8037 42.3742Z" fill="#A3C0C9"/>
<path d="M67.5436 60.2744L43.9048 71.93V36.8863L67.5436 25.2307V60.2744Z" fill="#B06E55"/>
<path d="M46.8091 68.5986L44.9744 67.6848V37.5583L46.8091 38.4722V68.5986Z" fill="#A89D9B"/>
<path d="M46.8086 38.4699L44.9744 37.5582L66.9771 26.7595L68.8114 27.6712L46.8086 38.4699Z" fill="white"/>
<path d="M68.8119 57.7976L46.8091 68.5984V38.472L68.8119 27.6711V57.7976Z" fill="#D9D9D9"/>
<path d="M48.7102 69.6213L46.8755 68.7075V38.5811L48.7102 39.4944V69.6213Z" fill="#A89D9B"/>
<path d="M48.7098 39.4924L46.8755 38.5812L68.8783 27.7825L70.713 28.6937L48.7098 39.4924Z" fill="white"/>
<path d="M70.713 58.8206L48.7102 69.6214V39.4945L70.713 28.6941V58.8206Z" fill="#D9D9D9"/>
<path d="M50.6889 70.6406L48.8542 69.7268V39.6003L50.6889 40.5141V70.6406Z" fill="#A89D9B"/>
<path d="M50.6888 40.5121L48.8545 39.6009L70.8573 28.8018L72.6915 29.7134L50.6888 40.5121Z" fill="white"/>
<path d="M72.6917 59.8398L50.689 70.6407V40.5142L72.6917 29.7134V59.8398Z" fill="#D9D9D9"/>
<path d="M49.5995 74.7916L43.9048 71.9308V36.8872L49.5995 39.7479V74.7916Z" fill="#E39274"/>
<path d="M73.0122 63.0358L49.5996 74.7967V39.7531L73.0122 27.9922V63.0358Z" fill="#BD755B"/>
<path d="M43.9048 36.8872L49.5995 39.7551L49.846 39.6362L44.1512 36.7683L43.9048 36.8872Z" fill="#E3B09D"/>
<path d="M73.0121 27.9921L49.6198 39.7552L49.3738 39.6363L72.7657 27.8728L73.0121 27.9921Z" fill="#E3B09D"/>
<path d="M67.5436 25.2444L44.1512 37.0078L43.9048 36.8885L67.2971 25.1255L67.5436 25.2444Z" fill="#E3B09D"/>
</g>
</g>
<defs>
<filter id="filter0_f_195_10885" x="0" y="0" width="93" height="92" filterUnits="userSpaceOnUse" color-interpolation-filters="sRGB">
<feFlood flood-opacity="0" result="BackgroundImageFix"/>
<feBlend mode="normal" in="SourceGraphic" in2="BackgroundImageFix" result="shape"/>
<feGaussianBlur stdDeviation="0.5" result="effect1_foregroundBlur_195_10885"/>
</filter>
<linearGradient id="paint0_linear_195_10885" x1="46.5" y1="1" x2="46.5" y2="91" gradientUnits="userSpaceOnUse">
<stop stop-color="#026924" stop-opacity="0.12"/>
<stop offset="1" stop-color="white"/>
</linearGradient>
</defs>
</svg>
