<svg width="18" height="18" viewBox="0 0 18 18" fill="none" xmlns="http://www.w3.org/2000/svg">
<g clip-path="url(#clip0_53_1800)">
<path d="M7.2 9.00005V8.28005M7.2 13.32V11.88M7.2 13.32C6.40471 13.32 5.76 13.9648 5.76 14.76C5.76 15.5553 6.40471 16.2 7.2 16.2C7.99529 16.2 8.64 15.5553 8.64 14.76C8.64 13.9648 7.99529 13.32 7.2 13.32ZM7.2 5.40005V4.68005M10.08 1.80005V4.68005C10.08 5.06196 10.2317 5.42823 10.5018 5.69828C10.7718 5.96834 11.1381 6.12005 11.52 6.12005H14.4M11.16 16.2H12.96C13.3419 16.2 13.7082 16.0483 13.9782 15.7783C14.2483 15.5082 14.4 15.142 14.4 14.76V5.40005L10.8 1.80005H4.32C3.93809 1.80005 3.57182 1.95176 3.30177 2.22182C3.03171 2.49187 2.88 2.85814 2.88 3.24005V14.76C2.88005 15.0157 2.94814 15.2667 3.07728 15.4872" stroke="white" stroke-width="2" stroke-linecap="round" stroke-linejoin="round"/>
</g>
<defs>
<clipPath id="clip0_53_1800">
<rect width="17.28" height="17.28" fill="white" transform="translate(0 0.360107)"/>
</clipPath>
</defs>
</svg>
