<svg width="18" height="18" viewBox="0 0 18 18" fill="none" xmlns="http://www.w3.org/2000/svg">
<g clip-path="url(#clip0_53_1804)">
<path d="M8.64 12.6H8.6472M6.552 6.84005C6.72479 6.36386 7.05944 5.96355 7.49746 5.70909C7.93547 5.45464 8.44899 5.36222 8.94824 5.448C9.44749 5.53378 9.90071 5.7923 10.2287 6.17837C10.5566 6.56444 10.7385 7.0535 10.7424 7.56005C10.7424 9.00005 8.5824 9.72005 8.5824 9.72005M10.8 1.80005H4.32C3.93809 1.80005 3.57182 1.95176 3.30177 2.22182C3.03171 2.49187 2.88 2.85814 2.88 3.24005V14.76C2.88 15.142 3.03171 15.5082 3.30177 15.7783C3.57182 16.0483 3.93809 16.2 4.32 16.2H12.96C13.3419 16.2 13.7082 16.0483 13.9782 15.7783C14.2483 15.5082 14.4 15.142 14.4 14.76V5.40005L10.8 1.80005Z" stroke="white" stroke-width="2" stroke-linecap="round" stroke-linejoin="round"/>
</g>
<defs>
<clipPath id="clip0_53_1804">
<rect width="17.28" height="17.28" fill="white" transform="translate(0 0.360107)"/>
</clipPath>
</defs>
</svg>
