<svg width="426" height="163" viewBox="0 0 426 163" fill="none" xmlns="http://www.w3.org/2000/svg">
<rect x="65.0214" y="79.2214" width="32.8845" height="5.23163" rx="2.61581" fill="white"/>
<rect x="65.0214" y="66.5161" width="40.3583" height="5.23163" rx="2.61581" fill="white"/>
<rect x="65.0214" y="53.8113" width="47.832" height="5.23163" rx="2.61581" fill="white"/>
<path d="M77.1914 22.7437C83.3387 22.6935 81.9084 23.658 88.1445 30.3267C90.3464 32.6815 89.7886 33.3597 94.4053 33.3238C97.6296 33.298 100.856 33.3146 104.081 33.316C110.244 33.3196 116.414 33.3425 122.575 33.3131C129.162 33.2815 132.306 35.4695 132.297 42.1256C132.281 54.6548 132.297 67.1833 132.291 79.7125C131.7 79.3813 131.177 79.0393 130.682 78.69C129.166 74.1879 126.645 70.1488 123.386 66.8375C123.391 60.1395 123.346 53.4372 123.378 46.7418C123.407 40.7416 120.923 41.5131 115.429 41.5182L60.3535 41.4928C53.9727 41.48 54.854 43.7989 54.8525 49.7008C54.8497 68.0373 54.9898 86.4235 54.8506 104.754C54.7889 112.963 56.9773 110.995 75.9258 111.002L79.8203 110.984C83.8877 114.883 89.0155 117.682 94.7275 118.911C94.8384 119.035 94.9566 119.162 95.0918 119.294C92.385 119.859 63.5601 119.489 58.2764 119.488C52.211 119.486 46.1309 120.592 43.1396 116.102C40.9427 112.804 41.8409 103.641 41.8359 98.8668V43.3961C41.8223 22.3257 40.6384 22.7568 58.6963 22.7496C64.8571 22.7474 71.0327 22.7947 77.1914 22.7437Z" fill="white"/>
<circle cx="117.338" cy="103.138" r="26.1581" fill="white"/>
<path d="M127.927 98.6294L118.085 88.1904L107.608 98.3764C106.017 99.9228 106.116 102.506 107.82 103.926L109.116 105.006L114.722 99.4011V114.722C114.722 116.373 116.06 117.712 117.711 117.712C119.362 117.712 120.701 116.373 120.701 114.722V99.4011L126.68 105.006L127.851 103.835C129.28 102.406 129.314 100.1 127.927 98.6294Z" fill="#026924"/>
<path d="M174.607 103.488C161.698 103.488 153.615 94.9396 153.615 81.3323C153.615 67.8994 162.163 59.0604 175.014 59.0604C185.772 59.0604 193.506 65.2244 194.844 74.8775H184.9C183.621 70.5743 179.957 68.132 174.782 68.132C167.804 68.132 163.559 73.0748 163.559 81.2741C163.559 89.3571 167.862 94.4163 174.782 94.4163C180.073 94.4163 183.97 91.7995 185.133 87.5544H194.902C193.39 97.1494 185.365 103.488 174.607 103.488ZM207.506 103.546C201.342 103.546 197.504 99.9406 197.504 94.2418C197.504 88.8919 201.283 85.5773 208.262 85.0539L216.403 84.4143V83.9491C216.403 81.0997 214.658 79.5877 211.46 79.5877C207.68 79.5877 205.645 81.0415 205.645 83.6583H198.201C198.201 77.0872 203.609 72.7841 211.925 72.7841C220.357 72.7841 225.125 77.4943 225.125 85.8099V102.79H217.217L216.635 98.9521C215.705 101.627 211.867 103.546 207.506 103.546ZM210.646 96.9168C214.077 96.9168 216.461 95.2304 216.461 91.9158V90.3457L211.925 90.7528C208.029 91.1017 206.633 91.9739 206.633 93.8348C206.633 95.9282 207.913 96.9168 210.646 96.9168ZM228.65 93.6022H237.14C237.256 95.6375 238.768 96.8586 241.501 96.8586C244.293 96.8586 245.572 95.8701 245.572 94.3581C245.572 93.4859 245.107 92.5554 242.955 92.0902L237.605 90.9272C232.255 89.7642 229.639 87.4381 229.639 82.3208C229.639 76.2731 234.814 72.7841 241.792 72.7841C248.538 72.7841 253.248 76.7383 253.248 82.6116H244.758C244.758 80.6345 243.537 79.297 241.385 79.297C239.35 79.297 238.07 80.3437 238.07 81.9138C238.07 83.2513 239.175 84.0072 241.211 84.4724L246.619 85.6355C251.387 86.6822 254.004 88.8919 254.004 93.544C254.004 99.7662 248.712 103.546 241.152 103.546C233.477 103.546 228.65 99.4754 228.65 93.6022ZM271.369 103.546C262.589 103.546 256.308 97.1494 256.308 88.1941C256.308 79.1225 262.414 72.7841 271.195 72.7841C280.325 72.7841 286.024 78.7736 286.024 88.2523V90.5202L264.915 90.6365C265.438 94.4744 267.59 96.2771 271.544 96.2771C274.917 96.2771 277.301 95.0559 277.941 92.9625H286.14C285.093 99.4173 279.336 103.546 271.369 103.546ZM271.253 80.0529C267.706 80.0529 265.729 81.623 265.031 85.1121H277.126C277.126 82.0301 274.859 80.0529 271.253 80.0529Z" fill="white"/>
<path d="M311.222 88.4849H303.197V102.79H293.776V59.7582H311.222C320.003 59.7582 325.876 65.5152 325.876 74.1215C325.876 82.7279 320.003 88.4849 311.222 88.4849ZM309.128 68.132H303.197V80.1111H309.128C313.664 80.1111 315.932 78.134 315.932 74.1215C315.932 70.1091 313.664 68.132 309.128 68.132ZM326.868 88.1941C326.868 79.0062 333.614 72.8422 342.918 72.8422C352.164 72.8422 358.909 79.0062 358.909 88.1941C358.909 97.382 352.164 103.488 342.918 103.488C333.614 103.488 326.868 97.382 326.868 88.1941ZM335.882 88.136C335.882 92.5554 338.731 95.463 342.918 95.463C347.047 95.463 349.896 92.5554 349.896 88.136C349.896 83.7746 347.047 80.8671 342.918 80.8671C338.731 80.8671 335.882 83.7746 335.882 88.136ZM383.3 73.7145V82.1464H380.451C375.334 82.1464 372.252 84.4143 372.252 90.1712V102.79H363.296V73.7726H371.728L372.193 78.0758C373.415 75.2264 375.973 73.3074 379.869 73.3074C380.916 73.3074 382.079 73.4237 383.3 73.7145ZM399.906 102.79H390.951V81.1578H385.427V73.7145H390.951V64.701H399.906V73.7145H405.431V81.1578H399.906V102.79Z" fill="white"/>
</svg>
