<svg width="618" height="156" viewBox="0 0 618 156" fill="none" xmlns="http://www.w3.org/2000/svg">
<g clip-path="url(#clip0_104_2327)">
<path d="M94.4265 86.3733C94.4265 84.278 96.125 82.5794 98.2203 82.5794H138.327C140.422 82.5794 142.121 84.278 142.121 86.3733C142.121 88.4686 140.422 90.1671 138.327 90.1671H98.2203C96.125 90.1671 94.4265 88.4686 94.4265 86.3733Z" fill="black"/>
<path d="M94.4265 67.946C94.4265 65.8507 96.125 64.1522 98.2203 64.1522H149.166C151.262 64.1522 152.96 65.8507 152.96 67.946C152.96 70.0413 151.262 71.7399 149.166 71.7399H98.2203C96.125 71.7399 94.4265 70.0413 94.4265 67.946Z" fill="black"/>
<path d="M94.4265 49.5188C94.4265 47.4235 96.125 45.7249 98.2203 45.7249H160.006C162.101 45.7249 163.8 47.4235 163.8 49.5188C163.8 51.614 162.101 53.3126 160.006 53.3126H98.2203C96.125 53.3126 94.4265 51.614 94.4265 49.5188Z" fill="black"/>
<path d="M112.075 0.666161C120.991 0.593319 118.917 1.99186 127.962 11.6642C131.155 15.079 130.345 16.0632 137.041 16.0112C141.717 15.9737 146.397 15.9977 151.074 15.9997C160.013 16.0049 168.96 16.0395 177.897 15.9969C187.45 15.9511 192.01 19.1231 191.996 28.7768C191.975 45.4344 191.992 62.0911 191.988 78.7486C188.035 76.3079 183.676 74.4635 179.036 73.3371C179.124 60.722 179.001 48.0878 179.062 35.4708C179.103 26.7692 175.501 27.8885 167.533 27.8959L87.6541 27.8586C78.3994 27.8399 79.6766 31.2035 79.6745 39.7633C79.6704 66.3573 79.8735 93.023 79.6717 119.608C79.5822 131.514 82.7563 128.662 110.238 128.672L124.903 128.609C126.086 133.071 127.937 137.26 130.344 141.064C116.882 141.297 90.5643 140.983 84.6413 140.981C75.8445 140.979 67.0267 142.581 62.6882 136.069C59.5019 131.285 60.8046 117.995 60.7974 111.071V30.6188C60.7775 0.060246 59.0602 0.685157 85.2496 0.674769C94.1851 0.671647 103.142 0.740037 112.075 0.666161Z" fill="#181818"/>
<path d="M208.242 117.266C208.242 138.219 191.256 155.204 170.303 155.204C149.35 155.204 132.365 138.219 132.365 117.266C132.365 96.3132 149.35 79.3275 170.303 79.3275C191.256 79.3275 208.242 96.3132 208.242 117.266Z" fill="#026924"/>
<path d="M185.662 110.727L171.387 95.5869L156.192 110.36C153.885 112.603 154.029 116.35 156.5 118.41L158.38 119.976L166.509 111.846V134.067C166.509 136.462 168.451 138.403 170.845 138.403C173.24 138.403 175.181 136.462 175.181 134.067V111.846L183.853 119.976L185.551 118.277C187.624 116.205 187.673 112.86 185.662 110.727Z" fill="#181818"/>
<path d="M253.524 117.11C234.801 117.11 223.078 104.712 223.078 84.9769C223.078 65.4944 235.476 52.6748 254.115 52.6748C269.717 52.6748 280.935 61.6148 282.874 75.6152H268.452C266.597 69.3741 261.283 65.8318 253.777 65.8318C243.656 65.8318 237.5 73.0007 237.5 84.8925C237.5 96.6157 243.741 103.953 253.777 103.953C261.452 103.953 267.103 100.158 268.79 94.0012H282.959C280.766 107.917 269.127 117.11 253.524 117.11Z" fill="black"/>
<path d="M301.238 117.195C292.298 117.195 286.732 111.966 286.732 103.7C286.732 95.941 292.214 91.1336 302.335 90.3746L314.142 89.4469V88.7721C314.142 84.6395 311.612 82.4467 306.973 82.4467C301.491 82.4467 298.539 84.5552 298.539 88.3504H287.744C287.744 78.8201 295.587 72.579 307.648 72.579C319.877 72.579 326.793 79.4105 326.793 91.471V116.098H315.323L314.479 110.532C313.13 114.411 307.564 117.195 301.238 117.195ZM305.793 107.58C310.769 107.58 314.226 105.134 314.226 100.327V98.0495L307.648 98.6399C301.997 99.1459 299.973 100.411 299.973 103.11C299.973 106.146 301.829 107.58 305.793 107.58Z" fill="black"/>
<path d="M331.905 102.772H344.219C344.387 105.724 346.58 107.496 350.544 107.496C354.592 107.496 356.448 106.062 356.448 103.869C356.448 102.604 355.773 101.254 352.653 100.58L344.893 98.8929C337.134 97.2061 333.339 93.8325 333.339 86.4106C333.339 77.6393 340.845 72.579 350.966 72.579C360.749 72.579 367.581 78.314 367.581 86.8323H355.267C355.267 83.9648 353.496 82.025 350.375 82.025C347.424 82.025 345.568 83.5431 345.568 85.8203C345.568 87.7601 347.171 88.8565 350.122 89.5312L357.966 91.218C364.882 92.7361 368.677 95.941 368.677 102.688C368.677 111.712 361.002 117.195 350.038 117.195C338.905 117.195 331.905 111.291 331.905 102.772Z" fill="black"/>
<path d="M393.863 117.195C381.128 117.195 372.019 107.917 372.019 94.9289C372.019 81.772 380.875 72.579 393.61 72.579C406.852 72.579 415.117 81.2659 415.117 95.0133V98.3025L384.502 98.4712C385.261 104.038 388.381 106.652 394.116 106.652C399.008 106.652 402.466 104.881 403.394 101.845H415.285C413.767 111.206 405.418 117.195 393.863 117.195ZM393.695 83.1214C388.55 83.1214 385.682 85.3986 384.67 90.4589H402.213C402.213 85.9889 398.924 83.1214 393.695 83.1214Z" fill="black"/>
<path d="M449.759 95.3506H438.12V116.098H424.457V53.6869H449.759C462.495 53.6869 471.013 62.0365 471.013 74.5188C471.013 87.001 462.495 95.3506 449.759 95.3506ZM446.723 65.8318H438.12V83.2057H446.723C453.302 83.2057 456.591 80.3382 456.591 74.5188C456.591 68.6993 453.302 65.8318 446.723 65.8318Z" fill="#026924"/>
<path d="M472.452 94.9289C472.452 81.6033 482.235 72.6633 495.73 72.6633C509.14 72.6633 518.923 81.6033 518.923 94.9289C518.923 108.255 509.14 117.11 495.73 117.11C482.235 117.11 472.452 108.255 472.452 94.9289ZM485.525 94.8446C485.525 101.254 489.657 105.471 495.73 105.471C501.718 105.471 505.851 101.254 505.851 94.8446C505.851 88.5191 501.718 84.3021 495.73 84.3021C489.657 84.3021 485.525 88.5191 485.525 94.8446Z" fill="#026924"/>
<path d="M554.299 73.9284V86.1576H550.166C542.744 86.1576 538.274 89.4469 538.274 97.7965V116.098H525.286V74.0127H537.515L538.19 80.2539C539.961 76.1212 543.672 73.338 549.323 73.338C550.841 73.338 552.527 73.5067 554.299 73.9284Z" fill="#026924"/>
<path d="M578.383 116.098H565.395V84.7238H557.382V73.9284H565.395V60.8558H578.383V73.9284H586.395V84.7238H578.383V116.098Z" fill="#026924"/>
</g>
<defs>
<clipPath id="clip0_104_2327">
<rect width="617.016" height="155.723" fill="white"/>
</clipPath>
</defs>
</svg>
